<?xml version="1.0" standalone="no"?>
<!DOCTYPE svg PUBLIC "-//W3C//DTD SVG 20010904//EN"
 "http://www.w3.org/TR/2001/REC-SVG-20010904/DTD/svg10.dtd">
<svg version="1.0" xmlns="http://www.w3.org/2000/svg"
 width="470.000000pt" height="470.000000pt" viewBox="0 0 470.000000 470.000000"
 preserveAspectRatio="xMidYMid meet">
<metadata>
Created by potrace 1.11, written by Peter Selinger 2001-2013
</metadata>
<g transform="translate(0.000000,470.000000) scale(0.100000,-0.100000)"
fill="#000000" stroke="none">
<path d="M2028 3798 c-5 -41 -9 -70 -18 -128 -6 -36 -13 -115 -16 -176 l-6
-112 -52 -16 c-28 -9 -78 -21 -110 -27 -53 -10 -95 -22 -161 -49 -11 -4 -35
-14 -54 -21 -111 -42 -263 -179 -314 -282 -67 -138 -85 -309 -47 -455 25 -92
166 -383 238 -491 10 -14 24 -38 31 -52 26 -52 176 -243 250 -318 143 -146
284 -227 410 -238 l68 -6 6 -65 c4 -35 4 -68 1 -73 -3 -5 -24 -13 -47 -19 -99
-24 -126 -34 -195 -68 -147 -72 -218 -188 -192 -313 l13 -59 -29 -22 c-75 -57
-142 -146 -168 -221 -30 -90 -33 -87 109 -87 69 0 125 4 125 9 0 15 81 101 95
101 13 0 49 -43 70 -84 6 -11 16 -21 23 -24 27 -9 9 32 -60 134 -99 145 -103
151 -129 213 -18 43 -20 57 -11 72 8 12 8 19 2 19 -36 0 19 112 81 164 61 52
289 132 309 109 4 -4 12 -27 19 -51 11 -37 18 -46 57 -63 123 -52 244 6 244
117 l0 27 93 -5 c121 -7 201 -34 205 -68 2 -14 12 -34 22 -45 36 -41 42 -62
25 -95 -20 -39 -36 -45 -77 -30 -155 56 -461 65 -728 21 -126 -21 -180 -37
-180 -53 0 -10 14 -9 135 11 197 33 439 42 580 22 90 -13 199 -47 215 -66 22
-26 -15 -117 -120 -300 -25 -44 -51 -92 -57 -107 l-13 -28 88 0 87 0 49 75
c27 42 53 78 58 81 23 15 138 -102 138 -141 0 -13 21 -15 130 -15 l130 0 0 33
c-1 107 -121 283 -235 343 -29 15 -39 26 -37 40 13 89 13 102 -7 156 -34 88
-123 160 -240 193 -42 12 -170 32 -245 38 -27 2 -31 7 -42 57 -7 30 -13 80
-14 110 l0 55 63 42 c220 148 441 438 561 736 65 161 80 237 80 397 0 163 -10
206 -72 328 -116 229 -409 361 -817 367 -133 2 -155 8 -155 41 0 13 -4 32 -9
42 -10 18 -40 100 -61 167 -7 22 -26 68 -42 103 -29 59 -46 77 -50 50z m27
-66 c6 -4 21 -38 34 -77 13 -38 27 -74 31 -80 3 -5 13 -30 20 -55 7 -25 17
-49 20 -55 4 -5 10 -22 14 -37 8 -36 -35 -68 -93 -68 -23 0 -41 -4 -41 -10 0
-19 113 -11 145 10 33 22 69 27 63 8 -5 -14 -48 -38 -99 -56 -73 -25 -224 -7
-199 23 6 8 21 15 33 17 20 3 22 10 25 88 1 47 7 101 12 120 6 19 10 68 10
108 0 70 4 80 25 64z m510 -418 c103 -16 114 -19 225 -55 150 -49 283 -155
343 -274 44 -88 57 -150 57 -275 0 -156 -38 -302 -123 -478 -43 -89 -119 -212
-129 -212 -5 0 -4 8 1 18 32 59 101 263 122 357 8 36 13 120 13 210 0 132 -3
157 -24 210 -45 118 -110 188 -209 225 -31 12 -64 26 -73 31 -10 5 -27 9 -37
9 -11 0 -22 4 -25 8 -5 8 -31 15 -161 42 -110 23 -315 29 -475 14 -85 -7 -180
-18 -210 -23 -30 -5 -76 -13 -103 -17 -26 -4 -50 -11 -53 -15 -7 -12 69 -11
82 0 5 5 36 12 69 14 263 22 332 28 342 32 19 6 362 -31 403 -45 14 -4 61 -18
105 -31 117 -34 117 -34 136 -142 9 -50 28 -152 43 -226 39 -199 35 -385 -9
-486 -8 -16 -17 -43 -21 -60 -23 -98 -229 -391 -306 -434 -15 -9 -32 -29 -38
-46 -5 -16 -34 -55 -62 -87 -47 -49 -62 -59 -128 -78 -114 -35 -180 -32 -265
9 -96 47 -213 135 -217 163 -2 15 -11 24 -26 26 -60 9 -286 329 -408 577 -105
215 -116 252 -117 420 -2 162 8 202 76 305 82 126 253 228 458 275 74 16 84
14 91 -19 4 -25 49 -49 118 -64 66 -14 166 3 232 40 44 24 53 37 62 79 6 26 7
27 73 22 38 -2 113 -11 168 -19z m-516 -34 c46 0 100 5 118 12 23 8 36 9 43 2
48 -48 -140 -97 -237 -62 -33 12 -50 38 -38 59 5 8 10 8 18 0 6 -6 48 -11 96
-11z"/>
<path d="M1614 3069 c-3 -5 6 -9 20 -9 31 0 34 6 6 13 -11 3 -23 1 -26 -4z"/>
<path d="M2182 3061 c-21 -13 -11 -55 15 -59 26 -4 41 31 23 53 -14 17 -20 18
-38 6z"/>
<path d="M2460 3055 c-18 -22 -3 -57 23 -53 37 5 33 67 -4 68 -4 0 -12 -7 -19
-15z"/>
<path d="M1844 3026 c-7 -31 1 -46 26 -46 25 0 33 15 26 46 -4 15 -14 24 -26
24 -12 0 -22 -9 -26 -24z"/>
<path d="M1577 2993 c-14 -13 -7 -51 10 -57 24 -10 46 21 32 45 -10 19 -30 25
-42 12z"/>
<path d="M2721 2986 c-9 -11 -10 -20 -1 -35 12 -23 18 -25 38 -12 18 11 11 55
-9 59 -9 1 -21 -4 -28 -12z"/>
<path d="M1341 2906 c-14 -16 -4 -46 14 -46 19 0 27 17 20 40 -7 23 -18 25
-34 6z"/>
<path d="M2273 2775 c-49 -21 -80 -57 -98 -113 -15 -46 -15 -55 -1 -104 10
-35 28 -65 51 -88 34 -33 39 -35 108 -35 65 0 77 3 118 32 74 51 96 129 60
208 -41 92 -151 138 -238 100z"/>
<path d="M1668 2751 c-98 -63 -107 -203 -19 -286 30 -28 38 -30 104 -30 59 0
79 5 107 24 53 35 73 68 78 126 8 101 -66 184 -171 192 -45 4 -59 0 -99 -26z"/>
<path d="M2510 2239 c-53 -24 -186 -69 -285 -97 -113 -33 -241 -45 -401 -40
-117 4 -147 2 -151 -8 -3 -8 4 -42 16 -77 38 -114 51 -158 51 -173 0 -26 120
-74 227 -91 83 -14 113 -14 198 -4 155 19 270 54 378 115 114 63 128 85 107
171 -6 22 -17 71 -25 109 -15 73 -37 116 -58 115 -6 0 -32 -9 -57 -20z"/>
<path d="M2154 1556 c-10 -27 1 -51 24 -54 21 -3 23 0 20 30 -3 35 -33 52 -44
24z"/>
<path d="M2352 938 c2 -13 10 -23 18 -23 8 0 16 10 18 23 3 17 -2 22 -18 22
-16 0 -21 -5 -18 -22z"/>
<path d="M2547 947 c-3 -8 -2 -19 2 -26 10 -16 44 -2 37 16 -3 8 -6 17 -6 19
0 10 -28 2 -33 -9z"/>
<path d="M2190 930 c0 -13 7 -20 20 -20 13 0 20 7 20 20 0 13 -7 20 -20 20
-13 0 -20 -7 -20 -20z"/>
<path d="M2037 924 c-16 -16 -7 -44 14 -44 15 0 20 5 17 22 -3 22 -19 33 -31
22z"/>
<path d="M2712 898 c2 -13 10 -23 18 -23 8 0 16 10 18 23 3 17 -2 22 -18 22
-16 0 -21 -5 -18 -22z"/>
<path d="M1905 860 c-7 -12 2 -30 16 -30 5 0 9 9 9 20 0 21 -15 27 -25 10z"/>
</g>
</svg>
